<svg width="64" height="64" fill="none" xmlns="http://www.w3.org/2000/svg"><path fill-rule="evenodd" clip-rule="evenodd" d="M46.3 38.68a14 14 0 0 0 1.4-9.59l-.96.2a13.02 13.02 0 1 1-4.03-6.97l.66-.72a13.98 13.98 0 0 0-23.14 7.85 14 14 0 0 0 26.07 9.23Zm-11.96-2.3 15.5-14-.68-.75L34 35.33l-5.16-4.7-.68.74 5.5 5a.5.5 0 0 0 .68 0ZM9 35a1 1 0 1 0 0-2 1 1 0 0 0 0 2Zm0 1a2 2 0 1 0 0-4 2 2 0 0 0 0 4Zm45 2a1 1 0 1 1-2 0 1 1 0 0 1 2 0Zm1 0a2 2 0 1 1-4 0 2 2 0 0 1 4 0Zm-36.15 2.85-3.5 3.5-.35.36-.35-.36-2-2 .7-.7L15 43.29l3.15-3.14.7.7Zm36.5-11.5 4-4-.7-.7L55 28.29l-1.65-1.64-.7.7 2 2 .35.36.35-.36ZM15 26.71l-1.65 1.64-.7-.7L14.29 26l-1.64-1.65.7-.7L15 25.29l1.65-1.64.7.7L15.71 26l1.64 1.65-.7.7L15 26.71Z" fill="#1A1A1A"/></svg>